<?xml version="1.0" encoding="UTF-8" standalone="no"?>
<svg xmlns="http://www.w3.org/2000/svg" height="77px" width="316px" version="1.1" xmlns:xlink="http://www.w3.org/1999/xlink" viewBox="0 0 316 77">
 <title>LogoType + RE Copy 2</title>
 <desc>Created with Sketch.</desc>
 <g fill-rule="evenodd" fill="none">
  <g transform="translate(.68911 .80989)" fill="#fff">
   <path id="LogoType" d="m92.446 39.986h2.943l3.319 4.866h2.832l-3.698-5.352c1.847-0.487 3.208-1.947 3.208-4.265 0-2.805-1.967-4.522-5.055-4.522h-6.031v14.024h2.337v-4.751h0.145zm0-6.955h3.434c1.731 0 2.828 0.859 2.828 2.319 0 1.459-1.097 2.318-2.828 2.318h-3.434v-4.637zm18.704 12.078c4.18 0 7.12-3.291 7.12-7.327 0-4.035-2.94-7.184-7.12-7.184-4.19 0-7.13 3.292-7.13 7.327 0 3.893 2.94 7.184 7.13 7.184zm0-12.307c2.71 0 4.67 2.319 4.67 5.009 0 2.805-1.85 5.009-4.56 5.009s-4.67-2.319-4.67-5.009c0-2.805 1.84-5.009 4.56-5.009zm12.9-1.946h-2.46v14.025h9.58v-2.319h-7.12v-11.706zm19.3 5.982h-6.75v-3.807h7.62v-2.175h-10.1v14.025h2.48v-5.753h6.75v-2.29zm13.65 4.007c0-2.318-1.47-3.406-4.41-4.15-2.57-0.601-3.21-1.088-3.21-2.204 0-0.973 0.87-1.717 2.22-1.717 1.25 0 2.46 0.486 3.7 1.459l1.24-1.831c-1.36-1.088-2.94-1.718-4.91-1.718-2.71 0-4.67 1.718-4.67 4.15 0 2.548 1.59 3.549 4.56 4.265 2.57 0.601 3.09 1.088 3.09 2.204s-0.99 1.832-2.46 1.832c-1.73 0-2.94-0.601-4.3-1.832l-1.47 1.717c1.59 1.46 3.58 2.204 5.66 2.204 3-0.229 4.96-1.689 4.96-4.379zm11.92-1.946h6.9v-2.204h-6.9v-3.664h7.76v-2.175h-10.1v14.025h10.22v-2.204h-7.88v-3.778zm20.66 3.663h-7.13v-11.706h-2.33v14.025h9.46v-2.319zm5.4-3.663h6.78v-2.204h-6.78v-3.664h7.76v-2.175h-10.1v14.025h10.1v-2.204h-7.76v-3.778zm13.53 1.087h2.95l3.32 4.866h2.82l-3.66-5.352c1.85-0.487 3.2-1.947 3.2-4.265 0-2.805-1.96-4.522-5.05-4.522h-6.03v14.024h2.34v-4.751h0.11zm0-6.955h3.44c1.73 0 2.83 0.859 2.83 2.319 0 1.459-1.1 2.318-2.83 2.318h-3.44v-4.637zm17.84 11.85v-11.85h4.3v-2.175h-11.06v2.175h4.3v11.85h2.46zm20.17-14.283c-4.18 0-7.13 3.292-7.13 7.327 0 4.036 2.95 7.184 7.13 7.184s7.13-3.291 7.13-7.327c-0.15-4.007-2.97-7.184-7.13-7.184zm0 12.193c-2.71 0-4.68-2.318-4.68-5.009 0-2.805 1.85-5.008 4.56-5.008 2.72 0 4.68 2.318 4.68 5.008-0.03 2.834-1.88 5.009-4.56 5.009zm10.45 2.09h2.33v-5.753h6.87v-2.29h-6.87v-3.807h7.74v-2.175h-10.07v14.025zm15.61-5.753h6.87v-2.29h-6.87v-3.807h7.73v-2.175h-10.18v14.025h2.45v-5.753zm10.94-8.272h2.33v14.025h-2.33v-14.025zm12.9 11.935c-2.57 0-4.42-2.204-4.42-5.009s1.85-5.008 4.42-5.008c1.58 0 2.71 0.744 3.8 1.717l1.48-1.832c-1.36-1.345-2.83-2.204-5.28-2.204-4.07 0-7.02 3.292-7.02 7.327 0 4.036 2.95 7.184 6.9 7.184 2.57 0 4.07-0.973 5.54-2.432l-1.47-1.575c-1.24 1.117-2.22 1.832-3.95 1.832zm10.82-0.114v-3.778h6.78v-2.204h-6.78v-3.664h7.62v-2.175h-9.96v14.025h10.1v-2.204h-7.76z"/>
   <path d="m36.624 0.094536c-20.117 0-36.624 16.882-36.624 37.756 0 20.873 16.352 37.756 36.521 37.858h0.155c20.117 0 36.624-16.985 36.624-37.756-0.207-20.976-16.559-37.858-36.676-37.858v-0.000464zm20.788 9.26c-14.288 0.1535-23.625 8.2365-27.391 12.124v-10.947h-15.475c5.984-5.167 13.773-8.2366 22.078-8.2366 7.789-0.1535 14.908 2.558 20.788 7.0601zm-55.349 28.444c0-9.925 3.9203-18.826 10.265-25.375h15.733v20.72c-7.531 3.479-12.844 11.204-12.844 20.362v1.023c0.258 6.548 3.353 12.381 7.944 16.218-12.38-5.475-21.098-18.111-21.098-32.948h0.0003zm25.998 14.735h-10.781c0.413-7.47 4.694-13.762 10.781-16.986v16.986zm1.909-17.906c2.063-0.768 4.281-1.177 6.499-1.177 10.368 0 18.828 8.492 19.344 19.083h-25.843v-17.906zm6.654 38.881s-0.155 0 0 0c-10.368 0-18.983-8.492-19.498-19.083h40.802v-1.023c0-12.227-9.595-22.152-21.407-22.152-2.321 0-4.539 0.409-6.5 1.023v-7.981c1.187-1.432 12.071-14.171 29.867-12.994 6.861 6.548 11.297 15.962 11.297 26.398 0 19.85-15.475 35.812-34.561 35.812z"/>
  </g>
 </g>
</svg>
