<?xml version="1.0" encoding="UTF-8" standalone="no"?>
<svg width="40px" height="40px" viewBox="0 0 40 40" version="1.1" xmlns="http://www.w3.org/2000/svg" xmlns:xlink="http://www.w3.org/1999/xlink" xmlns:sketch="http://www.bohemiancoding.com/sketch/ns">
    <!-- Generator: Sketch 3.3.2 (12043) - http://www.bohemiancoding.com/sketch -->
    <title>pinterest-white</title>
    <desc>Created with Sketch.</desc>
    <defs></defs>
    <g id="Page-1" stroke="none" stroke-width="1" fill="none" fill-rule="evenodd" sketch:type="MSPage">
        <path d="M40,0 L0.000253966641,0 L0.000253966641,39.999744 C0.000253966641,40.00032 -0.000317458302,39.999744 0.000253966641,39.999744 L40,39.999744 L40,0 L40,0 Z M22.0781138,27.481736 C20.2749824,27.3406312 19.5178443,26.4404404 18.1049962,25.574518 C17.3270011,29.6838341 16.3772928,33.6235367 13.5641678,35.6807865 C12.6958876,29.4698733 14.8393026,24.805353 15.8344391,19.8537278 C14.1375928,16.9743268 16.0390093,11.1795286 19.6181294,12.6075664 C24.0221014,14.3638887 15.8038679,23.3122343 21.3209757,24.4301295 C27.0812249,25.5975555 29.4329242,14.3558256 25.8615183,10.7003484 C20.6998368,5.42187844 10.837328,10.5805533 12.0510346,18.1374332 C12.3456042,19.9847536 14.2398778,20.5457171 12.8078869,23.0951057 C9.50476505,22.3570414 8.51934273,19.731629 8.64619907,16.2302151 C8.8507692,10.5004979 13.7547381,6.4879393 18.673564,5.93273526 C24.8940959,5.23066709 30.732916,8.23418271 31.5386252,14.1317858 C32.4454765,20.7907786 28.7295001,28.0006559 22.0781138,27.481736 L22.0781138,27.481736 Z" id="Pinterest-Icon-Copy-2" fill="#FFFFFF" sketch:type="MSShapeGroup"></path>
    </g>
</svg>